<svg width="26" height="26" viewBox="0 0 26 26" fill="none" xmlns="http://www.w3.org/2000/svg">
<path d="M22.9765 6.95141H23.8334V4.42358H15.7298L13.0368 14.3541H12.9632L10.2947 4.42358H2.16675V6.95135H2.99915C3.19158 6.98267 3.37012 7.07122 3.51149 7.20547C3.65287 7.33973 3.75053 7.51345 3.79175 7.704V18.3535C3.74798 18.5372 3.64819 18.7028 3.5062 18.8273C3.3642 18.9519 3.18701 19.0292 2.99915 19.0486H2.16675V21.5764H8.66675V19.0486H7.04175V7.85416H7.13656L10.8823 21.5764H13.8203L17.615 7.85416H17.6946V19.0486H16.0696V21.5764H23.8334V19.0486H22.9765C22.793 19.0247 22.6211 18.9453 22.4838 18.8211C22.3466 18.6969 22.2505 18.5338 22.2084 18.3535V7.70407C22.2482 7.51697 22.3423 7.34577 22.479 7.21189C22.6156 7.07801 22.7887 6.98741 22.9765 6.95141Z" fill="white"/>
</svg>
