<svg width="26" height="26" viewBox="0 0 26 26" fill="none" xmlns="http://www.w3.org/2000/svg">
<path d="M17.4569 10.0653C18.0549 9.46731 18.6486 8.07197 16.1569 9.7663C13.8294 11.3682 11.486 12.9471 9.1272 14.5026C8.76801 14.6651 8.37969 14.7532 7.98558 14.7618C7.59147 14.7703 7.19969 14.6991 6.83378 14.5525C5.33878 14.104 3.59353 13.506 3.59353 13.506C3.59353 13.506 2.40186 12.7574 4.44178 11.9601C4.44178 11.9601 13.0662 8.4208 16.0573 7.17389C17.2034 6.67555 21.0915 5.08089 21.0915 5.08089C21.0915 5.08089 22.8866 4.38214 22.7371 6.07755C22.6873 6.77522 22.2886 9.21922 21.8899 11.8604C21.2909 15.599 20.643 19.6875 20.643 19.6875C20.643 19.6875 20.5434 20.8336 19.6962 21.033C18.7893 21.0176 17.9131 20.7022 17.2045 20.136C17.0052 19.9865 13.4659 17.7429 12.1692 16.6466C12.0373 16.5572 11.9301 16.4359 11.8577 16.294C11.7852 16.1521 11.7498 15.9942 11.7548 15.835C11.7598 15.6757 11.8049 15.5203 11.8861 15.3832C11.9673 15.2461 12.0818 15.1318 12.219 15.0508C13.9976 13.4236 15.7439 11.7614 17.4569 10.0653Z" fill="white"/>
</svg>
