<svg width="26" height="26" viewBox="0 0 26 26" fill="none" xmlns="http://www.w3.org/2000/svg">
<path d="M23.8334 6.28332C23.0191 6.63659 22.158 6.87012 21.2767 6.97665C22.2064 6.42125 22.9031 5.5475 23.2376 4.51748C22.3639 5.03755 21.4076 5.40397 20.4101 5.60082C19.7433 4.87777 18.8555 4.39647 17.8857 4.23241C16.916 4.06834 15.9192 4.23079 15.0517 4.69427C14.1842 5.15776 13.4951 5.89606 13.0924 6.79339C12.6898 7.69072 12.5963 8.69632 12.8267 9.65248C11.0603 9.56314 9.33239 9.10318 7.75529 8.3025C6.17819 7.50182 4.78716 6.37832 3.67258 5.00498C3.28165 5.68767 3.07623 6.46079 3.07675 7.24748C3.07536 7.97806 3.25465 8.69765 3.59865 9.34218C3.94265 9.9867 4.44068 10.5362 5.04841 10.9416C4.34206 10.9224 3.65079 10.7329 3.03341 10.3891V10.4433C3.03871 11.4669 3.39741 12.4573 4.04884 13.2469C4.70027 14.0366 5.60444 14.5769 6.60841 14.7767C6.22194 14.8943 5.8207 14.9563 5.41675 14.9608C5.13713 14.9576 4.85821 14.9322 4.58258 14.885C4.86848 15.7655 5.42176 16.5351 6.16541 17.0865C6.90907 17.6379 7.80612 17.9438 8.73175 17.9617C7.16872 19.1915 5.23895 19.8627 3.25008 19.8683C2.88796 19.8695 2.52613 19.8478 2.16675 19.8033C4.19738 21.1144 6.56379 21.8104 8.98091 21.8075C10.6489 21.8248 12.3036 21.5096 13.8485 20.8802C15.3933 20.2509 16.7972 19.32 17.9782 18.142C19.1592 16.964 20.0937 15.5625 20.727 14.0193C21.3603 12.4761 21.6798 10.8222 21.6667 9.15415C21.6667 8.96998 21.6667 8.77498 21.6667 8.57998C22.5168 7.94603 23.25 7.16886 23.8334 6.28332Z" fill="white"/>
</svg>
